<svg version="1.1" xmlns="http://www.w3.org/2000/svg" xmlns:xlink="http://www.w3.org/1999/xlink" width="867" height="787"><defs/><g><g transform="translate(2,10) scale(1,1)"><rect fill="#ffffff" stroke="none" x="8" y="0" width="847" height="767"/></g><g transform="translate(2,10) scale(1,1)"><path fill="none" stroke="#000000" d="M 8 0 L 855 0 L 855 767 L 8 767 L 8 0 Z Z" stroke-miterlimit="10"/></g><g transform="translate(2,10) scale(1,1)"><path fill="#C0C0C0" stroke="none" d="M 39 32.5 C 39 27.2532944 43.2532944 23 48.5 23 C 53.7467056 23 58 27.2532944 58 32.5 C 58 37.7467056 53.7467056 42 48.5 42 C 43.2532944 42 39 37.7467056 39 32.5 Z" opacity="0.2"/></g><g transform="translate(2,10) scale(1,1)"><path fill="#000000" stroke="none" d="M 32 25.5 C 32 20.2532944 36.2532944 16 41.5 16 C 46.7467056 16 51 20.2532944 51 25.5 C 51 30.7467056 46.7467056 35 41.5 35 C 36.2532944 35 32 30.7467056 32 25.5 Z"/></g><g transform="translate(2,10) scale(1,1)"><path fill="#C0C0C0" stroke="none" d="M 543 739.5 C 543 732.59644 548.59644 727 555.5 727 C 562.40356 727 568 732.59644 568 739.5 C 568 746.40356 562.40356 752 555.5 752 C 548.59644 752 543 746.40356 543 739.5 Z" opacity="0.2"/></g><g transform="translate(2,10) scale(1,1)"><path fill="none" stroke="#000000" d="M 536 732.5 C 536 725.59644 541.59644 720 548.5 720 C 555.40356 720 561 725.59644 561 732.5 C 561 739.40356 555.40356 745 548.5 745 C 541.59644 745 536 739.40356 536 732.5 Z" stroke-miterlimit="10"/></g><g transform="translate(2,10) scale(1,1)"><path fill="#000000" stroke="none" d="M 541 732.5 C 541 728.357864 544.357864 725 548.5 725 C 552.642136 725 556 728.357864 556 732.5 C 556 736.642136 552.642136 740 548.5 740 C 544.357864 740 541 736.642136 541 732.5 Z"/></g><g transform="translate(2,10) scale(1,1)"><path fill="#C0C0C0" stroke="none" d="M 49 55 L 146.38623046875 55 Q 156.38623046875 55 156.38623046875 65 L 156.38623046875 85 Q 156.38623046875 95 146.38623046875 95 L 49 95 Q 39 95 39 85 L 39 65 Q 39 55 49 55 Z" opacity="0.2"/></g><g transform="translate(2,10) scale(1,1)"><path fill="#ffffff" stroke="none" d="M 42 48 L 139.38623046875 48 Q 149.38623046875 48 149.38623046875 58 L 149.38623046875 78 Q 149.38623046875 88 139.38623046875 88 L 42 88 Q 32 88 32 78 L 32 58 Q 32 48 42 48 Z"/></g><g transform="translate(2,10) scale(1,1)"><path fill="none" stroke="#000000" d="M 42 48 L 139.38623046875 48 Q 149.38623046875 48 149.38623046875 58 L 149.38623046875 78 Q 149.38623046875 88 139.38623046875 88 L 42 88 Q 32 88 32 78 L 32 58 Q 32 48 42 48 Z" stroke-miterlimit="10"/></g><g transform="translate(2,10) scale(1,1)"><g><path fill="none" stroke="none"/><text fill="#000000" stroke="none" font-family="Arial" font-size="13px" font-style="normal" font-weight="bold" text-decoration="none" x="40.4736328125" y="67.5">hasGlobalAccess</text></g></g><g transform="translate(2,10) scale(1,1)"><path fill="none" stroke="#000000" d="M 52 35 L 66 47" stroke-miterlimit="10"/></g><g transform="translate(2,10) scale(1,1)"><path fill="none" stroke="#000000" d="M 55.54440417463213 43.58232302044942 L 66 47 L 61.023439858681996 37.19011472239125" stroke-miterlimit="10"/></g><g transform="translate(2,10) scale(1,1)"><path fill="#C0C0C0" stroke="none" d="M 191 128.5 L 202.5 119 L 213 128.5 L 202.5 137 L 191 128.5" opacity="0.2"/></g><g transform="translate(2,10) scale(1,1)"><path fill="#ffffff" stroke="none" d="M 184 121 L 195 112 L 206 121 L 195 130 L 184 121"/></g><g transform="translate(2,10) scale(1,1)"><path fill="none" stroke="#000000" d="M 184 121 L 195 112 L 206 121 L 195 130 L 184 121 L 184 121" stroke-miterlimit="10"/></g><g transform="translate(2,10) scale(1,1)"><path fill="#C0C0C0" stroke="none" d="M 257 55 L 376.03173828125 55 Q 386.03173828125 55 386.03173828125 65 L 386.03173828125 85 Q 386.03173828125 95 376.03173828125 95 L 257 95 Q 247 95 247 85 L 247 65 Q 247 55 257 55 Z" opacity="0.2"/></g><g transform="translate(2,10) scale(1,1)"><path fill="#ffffff" stroke="none" d="M 250 48 L 369.03173828125 48 Q 379.03173828125 48 379.03173828125 58 L 379.03173828125 78 Q 379.03173828125 88 369.03173828125 88 L 250 88 Q 240 88 240 78 L 240 58 Q 240 48 250 48 Z"/></g><g transform="translate(2,10) scale(1,1)"><path fill="none" stroke="#000000" d="M 250 48 L 369.03173828125 48 Q 379.03173828125 48 379.03173828125 58 L 379.03173828125 78 Q 379.03173828125 88 369.03173828125 88 L 250 88 Q 240 88 240 78 L 240 58 Q 240 48 250 48 Z" stroke-miterlimit="10"/></g><g transform="translate(2,10) scale(1,1)"><g><path fill="none" stroke="none"/><text fill="#000000" stroke="none" font-family="Arial" font-size="13px" font-style="normal" font-weight="bold" text-decoration="none" x="248.457763671875" y="67.5">redirectToHomepage</text></g></g><g transform="translate(2,10) scale(1,1)"><path fill="none" stroke="#000000" d="M 132 89 L 183 115" stroke-miterlimit="10"/></g><g transform="translate(2,10) scale(1,1)"><path fill="none" stroke="#000000" d="M 172.03410037581722 114.1345258915784 L 183 115 L 175.85792062493564 106.63395540292306" stroke-miterlimit="10"/></g><g transform="translate(2,10) scale(1,1)"><path fill="none" stroke="#000000" d="M 207 115 L 264 89" stroke-miterlimit="10"/></g><g transform="translate(2,10) scale(1,1)"><path fill="none" stroke="#000000" d="M 256.50077650664946 97.04746214634025 L 264 89 L 253.00683315919912 89.3876632692376" stroke-miterlimit="10"/></g><g transform="translate(2,10) scale(1,1)"><g><path fill="none" stroke="none"/><text fill="#000000" stroke="none" font-family="Arial" font-size="13px" font-style="normal" font-weight="normal" text-decoration="none" x="208.436767578125" y="94.5"> [false]</text></g></g><g transform="translate(2,10) scale(1,1)"><path fill="#C0C0C0" stroke="none" d="M 49 167 L 143.49169921875 167 Q 153.49169921875 167 153.49169921875 177 L 153.49169921875 197 Q 153.49169921875 207 143.49169921875 207 L 49 207 Q 39 207 39 197 L 39 177 Q 39 167 49 167 Z" opacity="0.2"/></g><g transform="translate(2,10) scale(1,1)"><path fill="#ffffff" stroke="none" d="M 42 160 L 136.49169921875 160 Q 146.49169921875 160 146.49169921875 170 L 146.49169921875 190 Q 146.49169921875 200 136.49169921875 200 L 42 200 Q 32 200 32 190 L 32 170 Q 32 160 42 160 Z"/></g><g transform="translate(2,10) scale(1,1)"><path fill="none" stroke="#000000" d="M 42 160 L 136.49169921875 160 Q 146.49169921875 160 146.49169921875 170 L 146.49169921875 190 Q 146.49169921875 200 136.49169921875 200 L 42 200 Q 32 200 32 190 L 32 170 Q 32 160 42 160 Z" stroke-miterlimit="10"/></g><g transform="translate(2,10) scale(1,1)"><g><path fill="none" stroke="none"/><text fill="#000000" stroke="none" font-family="Arial" font-size="13px" font-style="normal" font-weight="bold" text-decoration="none" x="40.83544921875" y="179.5">hasSprintAccess</text></g></g><g transform="translate(2,10) scale(1,1)"><path fill="none" stroke="#000000" d="M 183 128 L 127 159" stroke-miterlimit="10"/></g><g transform="translate(2,10) scale(1,1)"><path fill="none" stroke="#000000" d="M 133.85251889927645 150.39517665869548 L 127 159 L 137.92999151743606 157.76093364633866" stroke-miterlimit="10"/></g><g transform="translate(2,10) scale(1,1)"><path fill="#C0C0C0" stroke="none" d="M 191 240.5 L 202.5 231 L 213 240.5 L 202.5 249 L 191 240.5" opacity="0.2"/></g><g transform="translate(2,10) scale(1,1)"><path fill="#ffffff" stroke="none" d="M 184 233 L 195 224 L 206 233 L 195 242 L 184 233"/></g><g transform="translate(2,10) scale(1,1)"><path fill="none" stroke="#000000" d="M 184 233 L 195 224 L 206 233 L 195 242 L 184 233 L 184 233" stroke-miterlimit="10"/></g><g transform="translate(2,10) scale(1,1)"><path fill="#ffffff" stroke="none" d="M 544 16 L 732 16 L 742 26 L 742 46 L 544 46 L 544 16"/></g><g transform="translate(2,10) scale(1,1)"><path fill="none" stroke="#000000" d="M 544 16 L 732 16 L 742 26 L 742 46 L 544 46 L 544 16 L 544 16" stroke-miterlimit="10"/></g><g transform="translate(2,10) scale(1,1)"><path fill="none" stroke="#000000" d="M 732 16 L 732 26 L 742 26 L 732 16" stroke-miterlimit="10"/></g><g transform="translate(2,10) scale(1,1)"><g><path fill="none" stroke="none"/><text fill="#000000" stroke="none" font-family="Arial" font-size="13px" font-style="normal" font-weight="normal" text-decoration="none" x="549" y="34">SprintBundle:CreateController</text></g></g><g transform="translate(2,10) scale(1,1)"><path fill="none" stroke="#000000" d="M 131 201 L 183 227" stroke-miterlimit="10"/></g><g transform="translate(2,10) scale(1,1)"><path fill="none" stroke="#000000" d="M 172.02767370306094 226.22022077900252 L 183 227 L 175.79278084503858 218.69000649504724" stroke-miterlimit="10"/></g><g transform="translate(2,10) scale(1,1)"><path fill="#C0C0C0" stroke="none" d="M 257 167 L 347.12451171875 167 Q 357.12451171875 167 357.12451171875 177 L 357.12451171875 197 Q 357.12451171875 207 347.12451171875 207 L 257 207 Q 247 207 247 197 L 247 177 Q 247 167 257 167 Z" opacity="0.2"/></g><g transform="translate(2,10) scale(1,1)"><path fill="#ffffff" stroke="none" d="M 250 160 L 340.12451171875 160 Q 350.12451171875 160 350.12451171875 170 L 350.12451171875 190 Q 350.12451171875 200 340.12451171875 200 L 250 200 Q 240 200 240 190 L 240 170 Q 240 160 250 160 Z"/></g><g transform="translate(2,10) scale(1,1)"><path fill="none" stroke="#000000" d="M 250 160 L 340.12451171875 160 Q 350.12451171875 160 350.12451171875 170 L 350.12451171875 190 Q 350.12451171875 200 340.12451171875 200 L 250 200 Q 240 200 240 190 L 240 170 Q 240 160 250 160 Z" stroke-miterlimit="10"/></g><g transform="translate(2,10) scale(1,1)"><g><path fill="none" stroke="none"/><text fill="#000000" stroke="none" font-family="Arial" font-size="13px" font-style="normal" font-weight="bold" text-decoration="none" x="248.82275390625" y="179.5">redirectToSprint</text></g></g><g transform="translate(2,10) scale(1,1)"><path fill="#C0C0C0" stroke="none" d="M 543 664.5 L 554.5 655 L 565 664.5 L 554.5 673 L 543 664.5" opacity="0.2"/></g><g transform="translate(2,10) scale(1,1)"><path fill="#ffffff" stroke="none" d="M 536 657 L 547 648 L 558 657 L 547 666 L 536 657"/></g><g transform="translate(2,10) scale(1,1)"><path fill="none" stroke="#000000" d="M 536 657 L 547 648 L 558 657 L 547 666 L 536 657 L 536 657" stroke-miterlimit="10"/></g><g transform="translate(2,10) scale(1,1)"><path fill="none" stroke="#000000" d="M 547 667 L 548 719" stroke-miterlimit="10"/></g><g transform="translate(2,10) scale(1,1)"><path fill="none" stroke="#000000" d="M 543.5958604886597 708.9201411138523 L 548 719 L 552.0133396580383 708.7582665144412" stroke-miterlimit="10"/></g><g transform="translate(2,10) scale(1,1)"><path fill="#C0C0C0" stroke="none" d="M 49 279 L 131.919921875 279 Q 141.919921875 279 141.919921875 289 L 141.919921875 309 Q 141.919921875 319 131.919921875 319 L 49 319 Q 39 319 39 309 L 39 289 Q 39 279 49 279 Z" opacity="0.2"/></g><g transform="translate(2,10) scale(1,1)"><path fill="#ffffff" stroke="none" d="M 42 272 L 124.919921875 272 Q 134.919921875 272 134.919921875 282 L 134.919921875 302 Q 134.919921875 312 124.919921875 312 L 42 312 Q 32 312 32 302 L 32 282 Q 32 272 42 272 Z"/></g><g transform="translate(2,10) scale(1,1)"><path fill="none" stroke="#000000" d="M 42 272 L 124.919921875 272 Q 134.919921875 272 134.919921875 282 L 134.919921875 302 Q 134.919921875 312 124.919921875 312 L 42 312 Q 32 312 32 302 L 32 282 Q 32 272 42 272 Z" stroke-miterlimit="10"/></g><g transform="translate(2,10) scale(1,1)"><g><path fill="none" stroke="none"/><text fill="#000000" stroke="none" font-family="Arial" font-size="13px" font-style="normal" font-weight="bold" text-decoration="none" x="39.746826171875" y="291.5">readUserSprint</text></g></g><g transform="translate(2,10) scale(1,1)"><path fill="none" stroke="#000000" d="M 183 239 L 123 271" stroke-miterlimit="10"/></g><g transform="translate(2,10) scale(1,1)"><path fill="none" stroke="#000000" d="M 129.98611651860202 262.50328439992745 L 123 271 L 133.94801558308765 269.93184514583805" stroke-miterlimit="10"/></g><g transform="translate(2,10) scale(1,1)"><path fill="none" stroke="#000000" d="M 380 67 L 552 64 L 547 647" stroke-miterlimit="10"/></g><g transform="translate(2,10) scale(1,1)"><path fill="none" stroke="#000000" d="M 542.8777922889071 636.8015979885765 L 547 647 L 551.2965181935708 636.8737997544827" stroke-miterlimit="10"/></g><g transform="translate(2,10) scale(1,1)"><g><path fill="none" stroke="none"/><text fill="#000000" stroke="none" font-family="Arial" font-size="13px" font-style="normal" font-weight="normal" text-decoration="none" x="548.687744140625" y="69.5"> [sprint]</text></g></g><g transform="translate(2,10) scale(1,1)"><path fill="none" stroke="#000000" d="M 351 179 L 552 176 L 547 647" stroke-miterlimit="10"/></g><g transform="translate(2,10) scale(1,1)"><path fill="none" stroke="#000000" d="M 542.8985973596679 636.7932132195349 L 547 647 L 551.3171585272368 636.8825822340526" stroke-miterlimit="10"/></g><g transform="translate(2,10) scale(1,1)"><g><path fill="none" stroke="none"/><text fill="#000000" stroke="none" font-family="Arial" font-size="13px" font-style="normal" font-weight="normal" text-decoration="none" x="547" y="180.5"> [sprint]</text></g></g><g transform="translate(2,10) scale(1,1)"><path fill="#C0C0C0" stroke="none" d="M 191 352.5 L 202.5 343 L 213 352.5 L 202.5 361 L 191 352.5" opacity="0.2"/></g><g transform="translate(2,10) scale(1,1)"><path fill="#ffffff" stroke="none" d="M 184 345 L 195 336 L 206 345 L 195 354 L 184 345"/></g><g transform="translate(2,10) scale(1,1)"><path fill="none" stroke="#000000" d="M 184 345 L 195 336 L 206 345 L 195 354 L 184 345 L 184 345" stroke-miterlimit="10"/></g><g transform="translate(2,10) scale(1,1)"><path fill="none" stroke="#000000" d="M 127 313 L 183 339" stroke-miterlimit="10"/></g><g transform="translate(2,10) scale(1,1)"><path fill="none" stroke="#000000" d="M 172.0096872460435 338.538453068235 L 183 339 L 175.55503828960323 330.9023123590295" stroke-miterlimit="10"/></g><g transform="translate(2,10) scale(1,1)"><path fill="#C0C0C0" stroke="none" d="M 257 279 L 347.8798828125 279 Q 357.8798828125 279 357.8798828125 289 L 357.8798828125 309 Q 357.8798828125 319 347.8798828125 319 L 257 319 Q 247 319 247 309 L 247 289 Q 247 279 257 279 Z" opacity="0.2"/></g><g transform="translate(2,10) scale(1,1)"><path fill="#ffffff" stroke="none" d="M 250 272 L 340.8798828125 272 Q 350.8798828125 272 350.8798828125 282 L 350.8798828125 302 Q 350.8798828125 312 340.8798828125 312 L 250 312 Q 240 312 240 302 L 240 282 Q 240 272 250 272 Z"/></g><g transform="translate(2,10) scale(1,1)"><path fill="none" stroke="#000000" d="M 250 272 L 340.8798828125 272 Q 350.8798828125 272 350.8798828125 282 L 350.8798828125 302 Q 350.8798828125 312 340.8798828125 312 L 250 312 Q 240 312 240 302 L 240 282 Q 240 272 250 272 Z" stroke-miterlimit="10"/></g><g transform="translate(2,10) scale(1,1)"><g><path fill="none" stroke="none"/><text fill="#000000" stroke="none" font-family="Arial" font-size="13px" font-style="normal" font-weight="bold" text-decoration="none" x="248.838623046875" y="291.5">setSprintAccess</text></g></g><g transform="translate(2,10) scale(1,1)"><path fill="#C0C0C0" stroke="none" d="M 295 240.5 L 306.5 231 L 317 240.5 L 306.5 249 L 295 240.5" opacity="0.2"/></g><g transform="translate(2,10) scale(1,1)"><path fill="#ffffff" stroke="none" d="M 288 233 L 299 224 L 310 233 L 299 242 L 288 233"/></g><g transform="translate(2,10) scale(1,1)"><path fill="none" stroke="#000000" d="M 288 233 L 299 224 L 310 233 L 299 242 L 288 233 L 288 233" stroke-miterlimit="10"/></g><g transform="translate(2,10) scale(1,1)"><path fill="none" stroke="#000000" d="M 207 233 L 287 233" stroke-miterlimit="10"/></g><g transform="translate(2,10) scale(1,1)"><path fill="none" stroke="#000000" d="M 276.83732514237585 237.209517756016 L 287 233 L 276.83732514237585 228.790482243984" stroke-miterlimit="10"/></g><g transform="translate(2,10) scale(1,1)"><path fill="none" stroke="#000000" d="M 296 271 L 298 243" stroke-miterlimit="10"/></g><g transform="translate(2,10) scale(1,1)"><path fill="none" stroke="#000000" d="M 301.4747595042381 253.43676417227616 L 298 243 L 293.0771192885779 252.83693272830044" stroke-miterlimit="10"/></g><g transform="translate(2,10) scale(1,1)"><path fill="none" stroke="#000000" d="M 298 223 L 297 201" stroke-miterlimit="10"/></g><g transform="translate(2,10) scale(1,1)"><path fill="none" stroke="#000000" d="M 301.66663910167813 210.9610481122565 L 297 201 L 293.25628748624484 211.3433368220489" stroke-miterlimit="10"/></g><g transform="translate(2,10) scale(1,1)"><path fill="#C0C0C0" stroke="none" d="M 49 391 L 125.4072265625 391 Q 135.4072265625 391 135.4072265625 401 L 135.4072265625 421 Q 135.4072265625 431 125.4072265625 431 L 49 431 Q 39 431 39 421 L 39 401 Q 39 391 49 391 Z" opacity="0.2"/></g><g transform="translate(2,10) scale(1,1)"><path fill="#ffffff" stroke="none" d="M 42 384 L 118.4072265625 384 Q 128.4072265625 384 128.4072265625 394 L 128.4072265625 414 Q 128.4072265625 424 118.4072265625 424 L 42 424 Q 32 424 32 414 L 32 394 Q 32 384 42 384 Z"/></g><g transform="translate(2,10) scale(1,1)"><path fill="none" stroke="#000000" d="M 42 384 L 118.4072265625 384 Q 128.4072265625 384 128.4072265625 394 L 128.4072265625 414 Q 128.4072265625 424 118.4072265625 424 L 42 424 Q 32 424 32 414 L 32 394 Q 32 384 42 384 Z" stroke-miterlimit="10"/></g><g transform="translate(2,10) scale(1,1)"><g><path fill="none" stroke="none"/><text fill="#000000" stroke="none" font-family="Arial" font-size="13px" font-style="normal" font-weight="bold" text-decoration="none" x="38.658203125" y="403.5">getCeateForm</text></g></g><g transform="translate(2,10) scale(1,1)"><path fill="none" stroke="#000000" d="M 183 351 L 121 383" stroke-miterlimit="10"/></g><g transform="translate(2,10) scale(1,1)"><path fill="none" stroke="#000000" d="M 128.10009729497304 374.5982966963885 L 121 383 L 131.96142832386082 382.0796255648586" stroke-miterlimit="10"/></g><g transform="translate(2,10) scale(1,1)"><path fill="#C0C0C0" stroke="none" d="M 49 487 L 131.18359375 487 Q 141.18359375 487 141.18359375 497 L 141.18359375 517 Q 141.18359375 527 131.18359375 527 L 49 527 Q 39 527 39 517 L 39 497 Q 39 487 49 487 Z" opacity="0.2"/></g><g transform="translate(2,10) scale(1,1)"><path fill="#ffffff" stroke="none" d="M 42 480 L 124.18359375 480 Q 134.18359375 480 134.18359375 490 L 134.18359375 510 Q 134.18359375 520 124.18359375 520 L 42 520 Q 32 520 32 510 L 32 490 Q 32 480 42 480 Z"/></g><g transform="translate(2,10) scale(1,1)"><path fill="none" stroke="#000000" d="M 42 480 L 124.18359375 480 Q 134.18359375 480 134.18359375 490 L 134.18359375 510 Q 134.18359375 520 124.18359375 520 L 42 520 Q 32 520 32 510 L 32 490 Q 32 480 42 480 Z" stroke-miterlimit="10"/></g><g transform="translate(2,10) scale(1,1)"><g><path fill="none" stroke="none"/><text fill="#000000" stroke="none" font-family="Arial" font-size="13px" font-style="normal" font-weight="bold" text-decoration="none" x="39.36279296875" y="499.5">handleRequest</text></g></g><g transform="translate(2,10) scale(1,1)"><path fill="none" stroke="#000000" d="M 81 425 L 82 479" stroke-miterlimit="10"/></g><g transform="translate(2,10) scale(1,1)"><path fill="none" stroke="#000000" d="M 77.60303843397692 468.9170079347985 L 82 479 L 86.02063072400257 468.76112659609436" stroke-miterlimit="10"/></g><g transform="translate(2,10) scale(1,1)"><path fill="#C0C0C0" stroke="none" d="M 191 560.5 L 202.5 551 L 213 560.5 L 202.5 569 L 191 560.5" opacity="0.2"/></g><g transform="translate(2,10) scale(1,1)"><path fill="#ffffff" stroke="none" d="M 184 553 L 195 544 L 206 553 L 195 562 L 184 553"/></g><g transform="translate(2,10) scale(1,1)"><path fill="none" stroke="#000000" d="M 184 553 L 195 544 L 206 553 L 195 562 L 184 553 L 184 553" stroke-miterlimit="10"/></g><g transform="translate(2,10) scale(1,1)"><path fill="none" stroke="#000000" d="M 127 521 L 183 547" stroke-miterlimit="10"/></g><g transform="translate(2,10) scale(1,1)"><path fill="none" stroke="#000000" d="M 172.0096872460435 546.5384530682351 L 183 547 L 175.55503828960323 538.9023123590296" stroke-miterlimit="10"/></g><g transform="translate(2,10) scale(1,1)"><path fill="#C0C0C0" stroke="none" d="M 257 487 L 321.86083984375 487 Q 331.86083984375 487 331.86083984375 497 L 331.86083984375 517 Q 331.86083984375 527 321.86083984375 527 L 257 527 Q 247 527 247 517 L 247 497 Q 247 487 257 487 Z" opacity="0.2"/></g><g transform="translate(2,10) scale(1,1)"><path fill="#ffffff" stroke="none" d="M 250 480 L 314.86083984375 480 Q 324.86083984375 480 324.86083984375 490 L 324.86083984375 510 Q 324.86083984375 520 314.86083984375 520 L 250 520 Q 240 520 240 510 L 240 490 Q 240 480 250 480 Z"/></g><g transform="translate(2,10) scale(1,1)"><path fill="none" stroke="#000000" d="M 250 480 L 314.86083984375 480 Q 324.86083984375 480 324.86083984375 490 L 324.86083984375 510 Q 324.86083984375 520 314.86083984375 520 L 250 520 Q 240 520 240 510 L 240 490 Q 240 480 250 480 Z" stroke-miterlimit="10"/></g><g transform="translate(2,10) scale(1,1)"><g><path fill="none" stroke="none"/><text fill="#000000" stroke="none" font-family="Arial" font-size="13px" font-style="normal" font-weight="bold" text-decoration="none" x="247.385009765625" y="499.5">createSprint</text></g></g><g transform="translate(2,10) scale(1,1)"><path fill="none" stroke="#000000" d="M 195 563 L 192 728 L 535 732" stroke-miterlimit="10"/></g><g transform="translate(2,10) scale(1,1)"><path fill="none" stroke="#000000" d="M 524.7889288740741 736.090724442111 L 535 732 L 524.8871033706974 727.6722613566619" stroke-miterlimit="10"/></g><g transform="translate(2,10) scale(1,1)"><g><path fill="none" stroke="none"/><text fill="#000000" stroke="none" font-family="Arial" font-size="13px" font-style="normal" font-weight="normal" text-decoration="none" x="171.04638671875" y="719.5">!isValid</text></g></g><g transform="translate(2,10) scale(1,1)"><path fill="#C0C0C0" stroke="none" d="M 295 352.5 L 306.5 343 L 317 352.5 L 306.5 361 L 295 352.5" opacity="0.2"/></g><g transform="translate(2,10) scale(1,1)"><path fill="#ffffff" stroke="none" d="M 288 345 L 299 336 L 310 345 L 299 354 L 288 345"/></g><g transform="translate(2,10) scale(1,1)"><path fill="none" stroke="#000000" d="M 288 345 L 299 336 L 310 345 L 299 354 L 288 345 L 288 345" stroke-miterlimit="10"/></g><g transform="translate(2,10) scale(1,1)"><path fill="none" stroke="#000000" d="M 207 345 L 287 345" stroke-miterlimit="10"/></g><g transform="translate(2,10) scale(1,1)"><path fill="none" stroke="#000000" d="M 276.83732514237585 349.209517756016 L 287 345 L 276.83732514237585 340.790482243984" stroke-miterlimit="10"/></g><g transform="translate(2,10) scale(1,1)"><g><path fill="none" stroke="none"/><text fill="#000000" stroke="none" font-family="Arial" font-size="13px" font-style="normal" font-weight="normal" text-decoration="none" x="231.5" y="336.5">sprint</text></g></g><g transform="translate(2,10) scale(1,1)"><path fill="none" stroke="#000000" d="M 298 335 L 297 313" stroke-miterlimit="10"/></g><g transform="translate(2,10) scale(1,1)"><path fill="none" stroke="#000000" d="M 301.66663910167813 322.9610481122565 L 297 313 L 293.25628748624484 323.3433368220489" stroke-miterlimit="10"/></g><g transform="translate(2,10) scale(1,1)"><path fill="none" stroke="#000000" d="M 284 479 L 298 355" stroke-miterlimit="10"/></g><g transform="translate(2,10) scale(1,1)"><path fill="none" stroke="#000000" d="M 301.04278698023074 365.5707827237598 L 298 355 L 292.67690316100715 364.62624745384744" stroke-miterlimit="10"/></g><g transform="translate(2,10) scale(1,1)"><path fill="none" stroke="#000000" d="M 207 546 L 248 521" stroke-miterlimit="10"/></g><g transform="translate(2,10) scale(1,1)"><path fill="none" stroke="#000000" d="M 241.5146532670781 529.8848341432904 L 248 521 L 237.13164087436647 522.6966938192434" stroke-miterlimit="10"/></g></g></svg>