<svg version="1.1" xmlns="http://www.w3.org/2000/svg" xmlns:xlink="http://www.w3.org/1999/xlink" width="677" height="677"><defs/><g><g transform="translate(-86,-38) scale(1,1)"><rect fill="#ffffff" stroke="none" x="96" y="48" width="657" height="657"/></g><g transform="translate(-86,-38) scale(1,1)"><path fill="none" stroke="#000000" d="M 96 48 L 753 48 L 753 705 L 96 705 L 96 48 Z Z" stroke-miterlimit="10"/></g><g transform="translate(-86,-38) scale(1,1)"><path fill="#C0C0C0" stroke="none" d="M 167 128.5 C 167 123.2532944 171.2532944 119 176.5 119 C 181.7467056 119 186 123.2532944 186 128.5 C 186 133.7467056 181.7467056 138 176.5 138 C 171.2532944 138 167 133.7467056 167 128.5 Z" opacity="0.2"/></g><g transform="translate(-86,-38) scale(1,1)"><path fill="#000000" stroke="none" d="M 160 121.5 C 160 116.2532944 164.2532944 112 169.5 112 C 174.7467056 112 179 116.2532944 179 121.5 C 179 126.7467056 174.7467056 131 169.5 131 C 164.2532944 131 160 126.7467056 160 121.5 Z"/></g><g transform="translate(-86,-38) scale(1,1)"><path fill="#C0C0C0" stroke="none" d="M 183 579.5 C 183 572.59644 188.59644 567 195.5 567 C 202.40356 567 208 572.59644 208 579.5 C 208 586.40356 202.40356 592 195.5 592 C 188.59644 592 183 586.40356 183 579.5 Z" opacity="0.2"/></g><g transform="translate(-86,-38) scale(1,1)"><path fill="none" stroke="#000000" d="M 176 572.5 C 176 565.59644 181.59644 560 188.5 560 C 195.40356 560 201 565.59644 201 572.5 C 201 579.40356 195.40356 585 188.5 585 C 181.59644 585 176 579.40356 176 572.5 Z" stroke-miterlimit="10"/></g><g transform="translate(-86,-38) scale(1,1)"><path fill="#000000" stroke="none" d="M 181 572.5 C 181 568.357864 184.357864 565 188.5 565 C 192.642136 565 196 568.357864 196 572.5 C 196 576.642136 192.642136 580 188.5 580 C 184.357864 580 181 576.642136 181 572.5 Z"/></g><g transform="translate(-86,-38) scale(1,1)"><path fill="#C0C0C0" stroke="none" d="M 177 215 L 265.68994140625 215 Q 275.68994140625 215 275.68994140625 225 L 275.68994140625 245 Q 275.68994140625 255 265.68994140625 255 L 177 255 Q 167 255 167 245 L 167 225 Q 167 215 177 215 Z" opacity="0.2"/></g><g transform="translate(-86,-38) scale(1,1)"><path fill="#ffffff" stroke="none" d="M 170 208 L 258.68994140625 208 Q 268.68994140625 208 268.68994140625 218 L 268.68994140625 238 Q 268.68994140625 248 258.68994140625 248 L 170 248 Q 160 248 160 238 L 160 218 Q 160 208 170 208 Z"/></g><g transform="translate(-86,-38) scale(1,1)"><path fill="none" stroke="#000000" d="M 170 208 L 258.68994140625 208 Q 268.68994140625 208 268.68994140625 218 L 268.68994140625 238 Q 268.68994140625 248 258.68994140625 248 L 170 248 Q 160 248 160 238 L 160 218 Q 160 208 170 208 Z" stroke-miterlimit="10"/></g><g transform="translate(-86,-38) scale(1,1)"><g><path fill="none" stroke="none"/><text fill="#000000" stroke="none" font-family="Arial" font-size="13px" font-style="normal" font-weight="bold" text-decoration="none" x="167.746826171875" y="227.5">redirectToHome</text></g></g><g transform="translate(-86,-38) scale(1,1)"><path fill="#C0C0C0" stroke="none" d="M 369 215 L 459.12451171875 215 Q 469.12451171875 215 469.12451171875 225 L 469.12451171875 245 Q 469.12451171875 255 459.12451171875 255 L 369 255 Q 359 255 359 245 L 359 225 Q 359 215 369 215 Z" opacity="0.2"/></g><g transform="translate(-86,-38) scale(1,1)"><path fill="#ffffff" stroke="none" d="M 362 208 L 452.12451171875 208 Q 462.12451171875 208 462.12451171875 218 L 462.12451171875 238 Q 462.12451171875 248 452.12451171875 248 L 362 248 Q 352 248 352 238 L 352 218 Q 352 208 362 208 Z"/></g><g transform="translate(-86,-38) scale(1,1)"><path fill="none" stroke="#000000" d="M 362 208 L 452.12451171875 208 Q 462.12451171875 208 462.12451171875 218 L 462.12451171875 238 Q 462.12451171875 248 452.12451171875 248 L 362 248 Q 352 248 352 238 L 352 218 Q 352 208 362 208 Z" stroke-miterlimit="10"/></g><g transform="translate(-86,-38) scale(1,1)"><g><path fill="none" stroke="none"/><text fill="#000000" stroke="none" font-family="Arial" font-size="13px" font-style="normal" font-weight="bold" text-decoration="none" x="360.82275390625" y="227.5">redirectToSprint</text></g></g><g transform="translate(-86,-38) scale(1,1)"><path fill="#C0C0C0" stroke="none" d="M 207 128.5 L 218.5 119 L 229 128.5 L 218.5 137 L 207 128.5" opacity="0.2"/></g><g transform="translate(-86,-38) scale(1,1)"><path fill="#ffffff" stroke="none" d="M 200 121 L 211 112 L 222 121 L 211 130 L 200 121"/></g><g transform="translate(-86,-38) scale(1,1)"><path fill="none" stroke="#000000" d="M 200 121 L 211 112 L 222 121 L 211 130 L 200 121 L 200 121" stroke-miterlimit="10"/></g><g transform="translate(-86,-38) scale(1,1)"><path fill="none" stroke="#000000" d="M 180 121 L 199 121" stroke-miterlimit="10"/></g><g transform="translate(-86,-38) scale(1,1)"><path fill="none" stroke="#000000" d="M 188.83732514237585 125.20951775601598 L 199 121 L 188.83732514237585 116.79048224398402" stroke-miterlimit="10"/></g><g transform="translate(-86,-38) scale(1,1)"><path fill="none" stroke="#000000" d="M 211 131 L 213 207" stroke-miterlimit="10"/></g><g transform="translate(-86,-38) scale(1,1)"><path fill="none" stroke="#000000" d="M 208.5245928199676 196.95158069281965 L 213 207 L 216.94071466674117 196.73010380211508" stroke-miterlimit="10"/></g><g transform="translate(-86,-38) scale(1,1)"><g><path fill="none" stroke="none"/><text fill="#000000" stroke="none" font-family="Arial" font-size="13px" font-style="normal" font-weight="normal" text-decoration="none" x="168.5" y="174.5"> [!hasGlobalAccess]</text></g></g><g transform="translate(-86,-38) scale(1,1)"><path fill="#C0C0C0" stroke="none" d="M 311 504.5 L 322.5 495 L 333 504.5 L 322.5 513 L 311 504.5" opacity="0.2"/></g><g transform="translate(-86,-38) scale(1,1)"><path fill="#ffffff" stroke="none" d="M 304 497 L 315 488 L 326 497 L 315 506 L 304 497"/></g><g transform="translate(-86,-38) scale(1,1)"><path fill="none" stroke="#000000" d="M 304 497 L 315 488 L 326 497 L 315 506 L 304 497 L 304 497" stroke-miterlimit="10"/></g><g transform="translate(-86,-38) scale(1,1)"><path fill="none" stroke="#000000" d="M 222 249 L 311 487" stroke-miterlimit="10"/></g><g transform="translate(-86,-38) scale(1,1)"><path fill="none" stroke="#000000" d="M 303.4975599800771 478.9555364537181 L 311 487 L 311.38326851105114 476.00667906188323" stroke-miterlimit="10"/></g><g transform="translate(-86,-38) scale(1,1)"><path fill="none" stroke="#000000" d="M 400 249 L 318 487" stroke-miterlimit="10"/></g><g transform="translate(-86,-38) scale(1,1)"><path fill="none" stroke="#000000" d="M 317.3305292251004 476.0203912236567 L 318 487 L 325.29036849579 478.7628568547346" stroke-miterlimit="10"/></g><g transform="translate(-86,-38) scale(1,1)"><path fill="#C0C0C0" stroke="none" d="M 399 128.5 L 410.5 119 L 421 128.5 L 410.5 137 L 399 128.5" opacity="0.2"/></g><g transform="translate(-86,-38) scale(1,1)"><path fill="#ffffff" stroke="none" d="M 392 121 L 403 112 L 414 121 L 403 130 L 392 121"/></g><g transform="translate(-86,-38) scale(1,1)"><path fill="none" stroke="#000000" d="M 392 121 L 403 112 L 414 121 L 403 130 L 392 121 L 392 121" stroke-miterlimit="10"/></g><g transform="translate(-86,-38) scale(1,1)"><path fill="none" stroke="#000000" d="M 223 121 L 391 121" stroke-miterlimit="10"/></g><g transform="translate(-86,-38) scale(1,1)"><path fill="none" stroke="#000000" d="M 380.83732514237585 125.20951775601598 L 391 121 L 380.83732514237585 116.79048224398402" stroke-miterlimit="10"/></g><g transform="translate(-86,-38) scale(1,1)"><path fill="none" stroke="#000000" d="M 403 131 L 406 207" stroke-miterlimit="10"/></g><g transform="translate(-86,-38) scale(1,1)"><path fill="none" stroke="#000000" d="M 401.3929119460315 197.01126936678233 L 406 207 L 409.8053959617094 196.67919762932135" stroke-miterlimit="10"/></g><g transform="translate(-86,-38) scale(1,1)"><g><path fill="none" stroke="none"/><text fill="#000000" stroke="none" font-family="Arial" font-size="13px" font-style="normal" font-weight="normal" text-decoration="none" x="340.5" y="174.5"> [!hasScrumMasterAccess]</text></g></g><g transform="translate(-86,-38) scale(1,1)"><path fill="#C0C0C0" stroke="none" d="M 513 215 L 567.0126953125 215 Q 577.0126953125 215 577.0126953125 225 L 577.0126953125 245 Q 577.0126953125 255 567.0126953125 255 L 513 255 Q 503 255 503 245 L 503 225 Q 503 215 513 215 Z" opacity="0.2"/></g><g transform="translate(-86,-38) scale(1,1)"><path fill="#ffffff" stroke="none" d="M 506 208 L 560.0126953125 208 Q 570.0126953125 208 570.0126953125 218 L 570.0126953125 238 Q 570.0126953125 248 560.0126953125 248 L 506 248 Q 496 248 496 238 L 496 218 Q 496 208 506 208 Z"/></g><g transform="translate(-86,-38) scale(1,1)"><path fill="none" stroke="#000000" d="M 506 208 L 560.0126953125 208 Q 570.0126953125 208 570.0126953125 218 L 570.0126953125 238 Q 570.0126953125 248 560.0126953125 248 L 506 248 Q 496 248 496 238 L 496 218 Q 496 208 506 208 Z" stroke-miterlimit="10"/></g><g transform="translate(-86,-38) scale(1,1)"><g><path fill="none" stroke="none"/><text fill="#000000" stroke="none" font-family="Arial" font-size="13px" font-style="normal" font-weight="bold" text-decoration="none" x="503.016845703125" y="227.5">readSprint</text></g></g><g transform="translate(-86,-38) scale(1,1)"><path fill="#C0C0C0" stroke="none" d="M 513 327 L 552 327 Q 562 327 562 337 L 562 357 Q 562 367 552 367 L 513 367 Q 503 367 503 357 L 503 337 Q 503 327 513 327 Z" opacity="0.2"/></g><g transform="translate(-86,-38) scale(1,1)"><path fill="#ffffff" stroke="none" d="M 506 320 L 545 320 Q 555 320 555 330 L 555 350 Q 555 360 545 360 L 506 360 Q 496 360 496 350 L 496 330 Q 496 320 506 320 Z"/></g><g transform="translate(-86,-38) scale(1,1)"><path fill="none" stroke="#000000" d="M 506 320 L 545 320 Q 555 320 555 330 L 555 350 Q 555 360 545 360 L 506 360 Q 496 360 496 350 L 496 330 Q 496 320 506 320 Z" stroke-miterlimit="10"/></g><g transform="translate(-86,-38) scale(1,1)"><g><path fill="none" stroke="none"/><text fill="#000000" stroke="none" font-family="Arial" font-size="13px" font-style="normal" font-weight="bold" text-decoration="none" x="503.825927734375" y="339.5">remove</text></g></g><g transform="translate(-86,-38) scale(1,1)"><path fill="#C0C0C0" stroke="none" d="M 513 407 L 552 407 Q 562 407 562 417 L 562 437 Q 562 447 552 447 L 513 447 Q 503 447 503 437 L 503 417 Q 503 407 513 407 Z" opacity="0.2"/></g><g transform="translate(-86,-38) scale(1,1)"><path fill="#ffffff" stroke="none" d="M 506 400 L 545 400 Q 555 400 555 410 L 555 430 Q 555 440 545 440 L 506 440 Q 496 440 496 430 L 496 410 Q 496 400 506 400 Z"/></g><g transform="translate(-86,-38) scale(1,1)"><path fill="none" stroke="#000000" d="M 506 400 L 545 400 Q 555 400 555 410 L 555 430 Q 555 440 545 440 L 506 440 Q 496 440 496 430 L 496 410 Q 496 400 506 400 Z" stroke-miterlimit="10"/></g><g transform="translate(-86,-38) scale(1,1)"><g><path fill="none" stroke="none"/><text fill="#000000" stroke="none" font-family="Arial" font-size="13px" font-style="normal" font-weight="bold" text-decoration="none" x="511.77001953125" y="419.5">flush</text></g></g><g transform="translate(-86,-38) scale(1,1)"><path fill="#C0C0C0" stroke="none" d="M 513 487 L 606.0380859375 487 Q 616.0380859375 487 616.0380859375 497 L 616.0380859375 517 Q 616.0380859375 527 606.0380859375 527 L 513 527 Q 503 527 503 517 L 503 497 Q 503 487 513 487 Z" opacity="0.2"/></g><g transform="translate(-86,-38) scale(1,1)"><path fill="#ffffff" stroke="none" d="M 506 480 L 599.0380859375 480 Q 609.0380859375 480 609.0380859375 490 L 609.0380859375 510 Q 609.0380859375 520 599.0380859375 520 L 506 520 Q 496 520 496 510 L 496 490 Q 496 480 506 480 Z"/></g><g transform="translate(-86,-38) scale(1,1)"><path fill="none" stroke="#000000" d="M 506 480 L 599.0380859375 480 Q 609.0380859375 480 609.0380859375 490 L 609.0380859375 510 Q 609.0380859375 520 599.0380859375 520 L 506 520 Q 496 520 496 510 L 496 490 Q 496 480 506 480 Z" stroke-miterlimit="10"/></g><g transform="translate(-86,-38) scale(1,1)"><g><path fill="none" stroke="none"/><text fill="#000000" stroke="none" font-family="Arial" font-size="13px" font-style="normal" font-weight="bold" text-decoration="none" x="503.75" y="499.5">redirectToCreate</text></g></g><g transform="translate(-86,-38) scale(1,1)"><path fill="none" stroke="#000000" d="M 415 121 L 528 120 L 532 207" stroke-miterlimit="10"/></g><g transform="translate(-86,-38) scale(1,1)"><path fill="none" stroke="#000000" d="M 527.3281680775602 197.04138631693783 L 532 207 L 535.7383192335894 196.65471270056867" stroke-miterlimit="10"/></g><g transform="translate(-86,-38) scale(1,1)"><path fill="none" stroke="#000000" d="M 532 249 L 527 319" stroke-miterlimit="10"/></g><g transform="translate(-86,-38) scale(1,1)"><path fill="none" stroke="#000000" d="M 523.525240495762 308.5632358277239 L 527 319 L 531.9228807114221 309.16306727169956" stroke-miterlimit="10"/></g><g transform="translate(-86,-38) scale(1,1)"><path fill="none" stroke="#000000" d="M 525 361 L 525 399" stroke-miterlimit="10"/></g><g transform="translate(-86,-38) scale(1,1)"><path fill="none" stroke="#000000" d="M 520.790482243984 388.83732514237585 L 525 399 L 529.209517756016 388.83732514237585" stroke-miterlimit="10"/></g><g transform="translate(-86,-38) scale(1,1)"><path fill="none" stroke="#000000" d="M 532 441 L 545 479" stroke-miterlimit="10"/></g><g transform="translate(-86,-38) scale(1,1)"><path fill="none" stroke="#000000" d="M 537.7275732674998 470.7470120913443 L 545 479 L 545.6933614570278 468.02187402650577" stroke-miterlimit="10"/></g><g transform="translate(-86,-38) scale(1,1)"><path fill="none" stroke="#000000" d="M 495 499 L 327 497" stroke-miterlimit="10"/></g><g transform="translate(-86,-38) scale(1,1)"><path fill="none" stroke="#000000" d="M 337.21206454585126 492.9117561580347 L 327 497 L 337.11184503408396 501.33019514648834" stroke-miterlimit="10"/></g><g transform="translate(-86,-38) scale(1,1)"><path fill="none" stroke="#000000" d="M 303 504 L 202 564" stroke-miterlimit="10"/></g><g transform="translate(-86,-38) scale(1,1)"><path fill="none" stroke="#000000" d="M 208.58728742175293 555.1904798982456 L 202 564 L 212.8871870084961 562.4286442025966" stroke-miterlimit="10"/></g><g transform="translate(-86,-38) scale(1,1)"><path fill="#ffffff" stroke="none" d="M 416 624 L 595.26611328125 624 L 605.26611328125 634 L 605.26611328125 662 L 416 662 L 416 624"/></g><g transform="translate(-86,-38) scale(1,1)"><path fill="none" stroke="#000000" d="M 416 624 L 595.26611328125 624 L 605.26611328125 634 L 605.26611328125 662 L 416 662 L 416 624 L 416 624" stroke-miterlimit="10"/></g><g transform="translate(-86,-38) scale(1,1)"><path fill="none" stroke="#000000" d="M 595.26611328125 624 L 595.26611328125 634 L 605.26611328125 634 L 595.26611328125 624" stroke-miterlimit="10"/></g><g transform="translate(-86,-38) scale(1,1)"><g><path fill="none" stroke="none"/><text fill="#000000" stroke="none" font-family="Arial" font-size="13px" font-style="normal" font-weight="normal" text-decoration="none" x="421" y="642">Sprint:Bundle:DeleteControlle</text></g></g></g></svg>